<svg width="17" height="16" viewBox="0 0 17 16" fill="none" xmlns="http://www.w3.org/2000/svg">
<path d="M0.5 6.47136C0.5 2.90319 3.43142 0 7.03429 0C10.6372 0 13.5686 2.90319 13.5686 6.47136C13.5686 7.94729 13.0691 9.30157 12.2257 10.3882L16.2298 14.3781C16.4017 14.5484 16.5 14.7836 16.5 15.0431C16.5 15.5864 16.1151 16 15.5583 16C15.2963 16 15.0507 15.9108 14.8623 15.7243L10.8337 11.7263C9.761 12.4886 8.45906 12.9427 7.03429 12.9427C3.43142 12.9427 0.5 10.0395 0.5 6.47136ZM1.9002 6.47136C1.9002 9.27724 4.20113 11.556 7.03429 11.556C9.86745 11.556 12.1684 9.27724 12.1684 6.47136C12.1684 3.66548 9.86745 1.38672 7.03429 1.38672C4.20113 1.38672 1.9002 3.66548 1.9002 6.47136Z" fill="white" fill-opacity="0.6"/>
</svg>
